<?xml version="1.0" encoding="UTF-8" standalone="no"?>
<!-- Generator: Adobe Illustrator 12.0.1, SVG Export Plug-In . SVG Version: 6.00 Build 51448)  -->
<svg
   xmlns:dc="http://purl.org/dc/elements/1.1/"
   xmlns:cc="http://web.resource.org/cc/"
   xmlns:rdf="http://www.w3.org/1999/02/22-rdf-syntax-ns#"
   xmlns:svg="http://www.w3.org/2000/svg"
   xmlns="http://www.w3.org/2000/svg"
   xmlns:sodipodi="http://sodipodi.sourceforge.net/DTD/sodipodi-0.dtd"
   xmlns:inkscape="http://www.inkscape.org/namespaces/inkscape"
   version="1.1"
   id="Layer_1"
   width="70.45"
   height="128.034"
   viewBox="0 0 70.45 128.034"
   style="overflow:visible;enable-background:new 0 0 70.45 128.034;"
   xml:space="preserve"
   sodipodi:version="0.32"
   inkscape:version="0.45.1"
   sodipodi:docname="Toluol.svg"
   inkscape:output_extension="org.inkscape.output.svg.inkscape"
   sodipodi:docbase="C:\"><metadata
   id="metadata36"><rdf:RDF><cc:Work
       rdf:about=""><dc:format>image/svg+xml</dc:format><dc:type
         rdf:resource="http://purl.org/dc/dcmitype/StillImage" /></cc:Work></rdf:RDF></metadata><defs
   id="defs34" /><sodipodi:namedview
   inkscape:window-height="579"
   inkscape:window-width="801"
   inkscape:pageshadow="2"
   inkscape:pageopacity="0.0"
   guidetolerance="10.0"
   gridtolerance="10.0"
   objecttolerance="10.0"
   borderopacity="1.0"
   bordercolor="#666666"
   pagecolor="#ffffff"
   id="base"
   inkscape:zoom="2.9523409"
   inkscape:cx="35.224998"
   inkscape:cy="64.016998"
   inkscape:window-x="44"
   inkscape:window-y="44"
   inkscape:current-layer="Layer_1" />
<path
   style="fill:#231f20"
   d="M 3.37625,104.59815 L 1.76125,105.5016 L 1.76125,66.88315 L 3.37625,67.83315 L 3.37625,104.59815 z "
   id="polygon3" />
<path
   style="fill:#231f20"
   d="M 7.46125,70.635651 L 9.07625,70.635651 L 9.07625,101.79565 L 7.46125,101.79565 L 7.46125,70.635651 z "
   id="rect5" />
<path
   style="fill:#231f20"
   d="M 35.24875,122.98065 L 35.24875,124.83315 L 1.76125,105.5016 L 3.37625,104.59815 L 35.24875,122.98065 z "
   id="polygon7" />
<path
   style="fill:#231f20"
   d="M 67.07375,104.59815 L 68.68875,105.5016 L 35.24875,124.83315 L 35.24875,122.98065 L 67.07375,104.59815 z "
   id="polygon9" />
<path
   style="fill:#231f20"
   d="M 61.84875,101.08315 L 62.65625,102.50815 L 35.62875,118.0891 L 34.82125,116.6641 L 61.84875,101.08315 z "
   id="polygon11" />
<path
   style="fill:#231f20"
   d="M 67.07375,67.83315 L 68.68875,66.88315 L 68.68875,105.5016 L 67.07375,104.59815 L 67.07375,67.83315 z "
   id="polygon13" />
<path
   style="fill:#231f20"
   d="M 35.24875,49.45065 L 35.24875,48.50065 L 36.05625,48.02565 L 68.68875,66.88315 L 67.07375,67.83315 L 35.24875,49.45065 z "
   id="polygon15" />
<path
   style="fill:#231f20"
   d="M 34.82125,55.72065 L 35.62875,54.34315 L 62.65625,69.92315 L 61.84875,71.30065 L 34.82125,55.72065 z "
   id="polygon17" />
<path
   style="fill:#231f20"
   d="M 3.37625,67.83315 L 1.76125,66.88315 L 34.44125,48.02565 L 35.24875,48.50065 L 35.24875,49.45065 L 3.37625,67.83315 z "
   id="polygon19" />
<g
   id="g21"
   transform="matrix(0.95,0,0,0.95,1.76125,3.20085)">
	<path
   style="fill:#231f20"
   d="M 40.694,11.457 L 42.975,12.031 C 42.498,13.901 41.642,15.327 40.406,16.308 C 39.169,17.289 37.656,17.781 35.869,17.781 C 34.019,17.781 32.515,17.404 31.356,16.649 C 30.197,15.895 29.315,14.801 28.71,13.371 C 28.105,11.94 27.803,10.403 27.803,8.762 C 27.803,6.972 28.144,5.409 28.827,4.076 C 29.51,2.743 30.481,1.729 31.742,1.038 C 33.001,0.347 34.388,0 35.902,0 C 37.619,0 39.062,0.438 40.232,1.314 C 41.403,2.191 42.217,3.422 42.678,5.011 L 40.444,5.538 C 40.046,4.288 39.469,3.378 38.713,2.808 C 37.957,2.238 37.004,1.953 35.858,1.953 C 34.54,1.953 33.438,2.269 32.552,2.902 C 31.667,3.535 31.045,4.384 30.686,5.451 C 30.327,6.518 30.148,7.617 30.148,8.75 C 30.148,10.211 30.36,11.486 30.785,12.576 C 31.21,13.666 31.87,14.48 32.767,15.019 C 33.664,15.558 34.634,15.828 35.679,15.828 C 36.95,15.828 38.025,15.461 38.906,14.726 C 39.787,13.991 40.381,12.902 40.694,11.457 z "
   id="path23" />
	<path
   style="fill:#231f20"
   d="M 45.87,17.484 L 45.87,0.297 L 48.151,0.297 L 48.151,7.36 L 57.042,7.36 L 57.042,0.297 L 59.323,0.297 L 59.323,17.485 L 57.042,17.485 L 57.042,9.391 L 48.151,9.391 L 48.151,17.485 L 45.87,17.485 L 45.87,17.484 z "
   id="path25" />
</g>
<g
   id="g27"
   transform="matrix(0.95,0,0,0.95,1.76125,3.20085)">
	<path
   style="fill:#231f20"
   d="M 60.92,18.578 L 62.498,18.359 C 62.68,19.255 62.99,19.901 63.426,20.297 C 63.862,20.692 64.398,20.89 65.033,20.89 C 65.785,20.89 66.419,20.632 66.931,20.118 C 67.444,19.602 67.701,18.964 67.701,18.202 C 67.701,17.476 67.463,16.878 66.984,16.406 C 66.507,15.934 65.901,15.699 65.166,15.699 C 64.865,15.699 64.49,15.758 64.043,15.875 L 64.221,14.484 C 64.326,14.496 64.412,14.502 64.477,14.502 C 65.151,14.502 65.758,14.327 66.297,13.976 C 66.837,13.625 67.108,13.084 67.108,12.353 C 67.108,11.774 66.911,11.294 66.516,10.915 C 66.122,10.535 65.614,10.345 64.991,10.345 C 64.374,10.345 63.86,10.539 63.448,10.927 C 63.036,11.315 62.772,11.897 62.655,12.673 L 61.077,12.392 C 61.27,11.33 61.71,10.507 62.397,9.924 C 63.083,9.34 63.936,9.048 64.958,9.048 C 65.661,9.048 66.31,9.198 66.902,9.5 C 67.495,9.801 67.948,10.212 68.262,10.732 C 68.575,11.253 68.733,11.805 68.733,12.39 C 68.733,12.946 68.583,13.452 68.284,13.908 C 67.985,14.364 67.544,14.726 66.958,14.996 C 67.72,15.172 68.312,15.537 68.737,16.09 C 69.161,16.645 69.374,17.337 69.374,18.169 C 69.374,19.295 68.962,20.248 68.141,21.03 C 67.32,21.812 66.281,22.204 65.025,22.204 C 63.891,22.204 62.951,21.867 62.203,21.195 C 61.452,20.521 61.026,19.649 60.92,18.578 z "
   id="path29" />
</g>
<path
   style="fill:#231f20"
   d="M 34.44125,22.18565 L 36.05625,22.18565 L 36.05625,48.02565 L 35.24875,48.50065 L 34.44125,48.02565 L 34.44125,22.18565 z "
   id="polygon31" />
</svg>