<?xml version="1.0" encoding="UTF-8"?>
<svg xmlns="http://www.w3.org/2000/svg" xmlns:xlink="http://www.w3.org/1999/xlink" clip-rule="evenodd" stroke-miterlimit="10" viewBox="28.08 142.31 381.84 455.82">
    <desc>SVG generated by Lineform</desc>
    <defs/>
    <g>
        <g>
            <path d="M 405.35 490.85 L 400.85 498.65 L 214.65 391.15 L 219.15 383.35 Z M 405.35 490.85 " fill="rgb(0, 0, 0)" stroke="rgb(0, 0, 0)" stroke-width="1.15"/>
            <path d="M 37.15 499.65 L 32.65 491.85 L 218.85 384.35 L 223.35 392.15 Z M 37.15 499.65 " fill="rgb(0, 0, 0)" stroke="rgb(0, 0, 0)" stroke-width="1.15"/>
            <path d="M 215.50 236.00 C 215.50 233.51 217.51 231.50 220.00 231.50 L 220.00 231.50 C 222.49 231.50 224.50 233.51 224.50 236.00 L 224.50 388.00 C 224.50 390.49 222.49 392.50 220.00 392.50 L 220.00 392.50 C 217.51 392.50 215.50 390.49 215.50 388.00 Z M 215.50 236.00 " fill="rgb(0, 0, 0)" stroke="rgb(0, 0, 0)" stroke-width="1.15"/>
            <path d="M 297.00 590.48 L 288.54 593.56 L 215.00 391.52 L 223.46 388.44 Z M 297.00 590.48 " fill="rgb(0, 0, 0)" stroke="rgb(0, 0, 0)" stroke-width="1.15"/>
        </g>
        <path d="M 219.76 146.81 C 232.90 146.81 242.63 151.03 248.95 159.48 C 253.88 166.06 256.34 174.49 256.34 184.76 C 256.34 195.87 253.52 205.11 247.88 212.47 C 241.26 221.12 231.82 225.44 219.56 225.44 C 208.11 225.44 199.11 221.66 192.55 214.09 C 186.71 206.80 183.79 197.58 183.79 186.43 C 183.79 176.36 186.29 167.75 191.29 160.59 C 197.70 151.40 207.20 146.81 219.76 146.81 Z M 220.78 216.42 C 229.66 216.42 236.08 213.24 240.05 206.87 C 244.02 200.51 246.01 193.19 246.01 184.91 C 246.01 176.16 243.72 169.12 239.14 163.78 C 234.56 158.45 228.31 155.78 220.37 155.78 C 212.67 155.78 206.39 158.42 201.52 163.71 C 196.66 168.99 194.23 176.79 194.23 187.09 C 194.23 195.33 196.31 202.28 200.48 207.94 C 204.65 213.60 211.42 216.42 220.78 216.42 Z M 260.45 223.26 " fill="rgb(0, 0, 0)" stroke="rgb(0, 0, 0)" stroke-width="1.00"/>
        <path d="M 265.29 148.63 L 275.75 148.63 L 275.75 180.23 L 315.51 180.23 L 315.51 148.63 L 325.98 148.63 L 325.98 225.09 L 315.51 225.09 L 315.51 189.33 L 275.75 189.33 L 275.75 225.09 L 265.29 225.09 Z M 333.89 225.09 " fill="rgb(0, 0, 0)" stroke="rgb(0, 0, 0)" stroke-width="1.00"/>
    </g>
</svg>