<?xml version="1.0" encoding="utf-8"?>
<!-- Generator: Adobe Illustrator 13.0.2, SVG Export Plug-In . SVG Version: 6.00 Build 14948)  -->
<!DOCTYPE svg PUBLIC "-//W3C//DTD SVG 1.1//EN" "http://www.w3.org/Graphics/SVG/1.1/DTD/svg11.dtd">
<svg version="1.1" id="Ebene_1" xmlns="http://www.w3.org/2000/svg" xmlns:xlink="http://www.w3.org/1999/xlink" x="0px" y="0px"
	 width="145.96px" height="206.29px" viewBox="0 0 145.96 206.29" enable-background="new 0 0 145.96 206.29" xml:space="preserve">
<polygon points="14.191,131.592 12.491,132.542 12.491,91.892 14.191,92.892 "/>
<rect x="18.441" y="95.842" width="1.7" height="32.8"/>
<polygon points="47.741,150.942 47.741,151.892 46.891,152.392 12.491,132.542 14.191,131.592 "/>
<polygon points="81.241,131.592 82.941,132.542 48.591,152.392 47.741,151.892 47.741,150.942 "/>
<polygon points="75.741,127.892 76.59,129.342 48.141,145.792 47.291,144.292 "/>
<polygon points="81.241,92.892 82.09,92.392 82.941,92.892 82.941,132.542 81.241,131.592 "/>
<polygon points="47.741,73.542 47.741,72.542 48.591,72.042 82.09,91.392 82.09,92.392 81.241,92.892 "/>
<polygon points="47.291,80.142 48.141,78.692 76.59,95.092 75.741,96.542 "/>
<polygon points="14.191,92.892 12.491,91.892 46.891,72.042 47.741,72.542 47.741,73.542 "/>
<polygon points="46.891,32.392 48.591,33.392 48.591,72.042 47.741,72.542 46.891,72.042 "/>
<g>
	<path d="M5.002,14.118c0-2.852,0.766-5.084,2.297-6.697s3.508-2.42,5.93-2.42c1.586,0,3.016,0.379,4.289,1.137
		s2.244,1.814,2.912,3.17s1.002,2.893,1.002,4.611c0,1.742-0.352,3.301-1.055,4.676s-1.699,2.416-2.988,3.123
		s-2.68,1.061-4.172,1.061c-1.617,0-3.063-0.391-4.336-1.172s-2.238-1.848-2.895-3.199S5.002,15.626,5.002,14.118z M7.346,14.153
		c0,2.07,0.557,3.701,1.67,4.893s2.51,1.787,4.189,1.787c1.711,0,3.119-0.602,4.225-1.805s1.658-2.91,1.658-5.121
		c0-1.398-0.236-2.619-0.709-3.662s-1.164-1.852-2.074-2.426s-1.932-0.861-3.064-0.861c-1.609,0-2.994,0.553-4.154,1.658
		S7.346,11.567,7.346,14.153z"/>
</g>
<polygon points="21.141,21.942 21.991,20.492 48.141,35.592 47.291,37.042 "/>
<polygon points="24.091,16.792 24.941,15.342 51.141,30.442 50.291,31.892 "/>
<g>
	<path d="M73.653,14.118c0-2.852,0.766-5.084,2.297-6.697s3.508-2.42,5.93-2.42c1.586,0,3.016,0.379,4.289,1.137
		s2.244,1.814,2.912,3.17s1.002,2.893,1.002,4.611c0,1.742-0.352,3.301-1.055,4.676s-1.699,2.416-2.988,3.123
		s-2.68,1.061-4.172,1.061c-1.617,0-3.063-0.391-4.336-1.172s-2.238-1.848-2.895-3.199S73.653,15.626,73.653,14.118z M75.997,14.153
		c0,2.07,0.557,3.701,1.67,4.893s2.51,1.787,4.189,1.787c1.711,0,3.119-0.602,4.225-1.805s1.658-2.91,1.658-5.121
		c0-1.398-0.236-2.619-0.709-3.662s-1.164-1.852-2.074-2.426s-1.932-0.861-3.064-0.861c-1.609,0-2.994,0.553-4.154,1.658
		S75.997,11.567,75.997,14.153z"/>
	<path d="M93.083,22.485V5.306h2.273v7.055h8.93V5.306h2.273v17.18h-2.273v-8.098h-8.93v8.098H93.083z"/>
</g>
<polygon points="71.741,18.042 72.591,19.492 48.591,33.392 46.891,32.392 "/>
<g>
	<path d="M108.051,73.621c0-2.852,0.766-5.084,2.297-6.697s3.508-2.42,5.93-2.42c1.586,0,3.016,0.379,4.289,1.137
		s2.244,1.814,2.912,3.17s1.002,2.893,1.002,4.611c0,1.742-0.352,3.301-1.055,4.676s-1.699,2.416-2.988,3.123
		s-2.68,1.061-4.172,1.061c-1.617,0-3.063-0.391-4.336-1.172s-2.238-1.848-2.895-3.199S108.051,75.129,108.051,73.621z
		 M110.395,73.656c0,2.07,0.557,3.701,1.67,4.893s2.51,1.787,4.189,1.787c1.711,0,3.119-0.602,4.225-1.805s1.658-2.91,1.658-5.121
		c0-1.398-0.236-2.619-0.709-3.662s-1.164-1.852-2.074-2.426s-1.932-0.861-3.064-0.861c-1.609,0-2.994,0.553-4.154,1.658
		S110.395,71.07,110.395,73.656z"/>
	<path d="M127.481,81.988v-17.18h2.273v7.055h8.93v-7.055h2.273v17.18h-2.273v-8.098h-8.93v8.098H127.481z"/>
</g>
<polygon points="106.141,77.542 106.991,78.992 82.941,92.892 82.09,92.392 82.09,91.392 "/>
<g>
	<path d="M39.301,192.629c0-2.852,0.766-5.084,2.297-6.697s3.508-2.42,5.93-2.42c1.586,0,3.016,0.379,4.289,1.137
		s2.244,1.814,2.912,3.17s1.002,2.893,1.002,4.611c0,1.742-0.352,3.301-1.055,4.676s-1.699,2.416-2.988,3.123
		s-2.68,1.061-4.172,1.061c-1.617,0-3.063-0.391-4.336-1.172s-2.238-1.848-2.895-3.199S39.301,194.137,39.301,192.629z
		 M41.645,192.664c0,2.07,0.557,3.701,1.67,4.893s2.51,1.787,4.189,1.787c1.711,0,3.119-0.602,4.225-1.805s1.658-2.91,1.658-5.121
		c0-1.398-0.236-2.619-0.709-3.662s-1.164-1.852-2.074-2.426s-1.932-0.861-3.064-0.861c-1.609,0-2.994,0.553-4.154,1.658
		S41.645,190.078,41.645,192.664z"/>
	<path d="M58.731,200.996v-17.18h2.273v7.055h8.93v-7.055h2.273v17.18h-2.273v-8.098h-8.93v8.098H58.731z"/>
</g>
<polygon points="48.591,181.242 46.891,181.242 46.891,152.392 47.741,151.892 48.591,152.392 "/>
</svg>
